<mxfile host="app.diagrams.net" modified="2023-02-28T15:17:04.154Z" agent="5.0 (Macintosh; Intel Mac OS X 10_15_7) AppleWebKit/537.36 (KHTML, like Gecko) Chrome/110.0.0.0 Safari/537.36" etag="KhllOqmuM-uR6ZE6yHCB" version="20.8.23" type="github">
  <diagram name="Page-1" id="QyNpGAPDR0gFWb4oUci9">
    <mxGraphModel dx="2074" dy="1099" grid="1" gridSize="10" guides="1" tooltips="1" connect="1" arrows="1" fold="1" page="1" pageScale="1" pageWidth="850" pageHeight="1100" math="0" shadow="0">
      <root>
        <mxCell id="0" />
        <mxCell id="1" parent="0" />
        <mxCell id="mKmFAj5GpWF6zvFIoPCy-1" value="switch" style="ellipse;whiteSpace=wrap;html=1;aspect=fixed;fillColor=#d0cee2;strokeColor=#56517e;" vertex="1" parent="1">
          <mxGeometry x="220" y="400" width="80" height="80" as="geometry" />
        </mxCell>
        <mxCell id="mKmFAj5GpWF6zvFIoPCy-2" value="device 0" style="rounded=0;whiteSpace=wrap;html=1;fillColor=#b1ddf0;strokeColor=#10739e;" vertex="1" parent="1">
          <mxGeometry x="160" y="520" width="80" height="40" as="geometry" />
        </mxCell>
        <mxCell id="mKmFAj5GpWF6zvFIoPCy-3" value="device 1" style="rounded=0;whiteSpace=wrap;html=1;fillColor=#b1ddf0;strokeColor=#10739e;" vertex="1" parent="1">
          <mxGeometry x="280" y="520" width="80" height="40" as="geometry" />
        </mxCell>
        <mxCell id="mKmFAj5GpWF6zvFIoPCy-4" value="switch" style="ellipse;whiteSpace=wrap;html=1;aspect=fixed;fillColor=#d0cee2;strokeColor=#56517e;" vertex="1" parent="1">
          <mxGeometry x="360" y="280" width="80" height="80" as="geometry" />
        </mxCell>
        <mxCell id="mKmFAj5GpWF6zvFIoPCy-6" value="switch" style="ellipse;whiteSpace=wrap;html=1;aspect=fixed;fillColor=#d0cee2;strokeColor=#56517e;" vertex="1" parent="1">
          <mxGeometry x="500" y="400" width="80" height="80" as="geometry" />
        </mxCell>
        <mxCell id="mKmFAj5GpWF6zvFIoPCy-7" value="device 2" style="rounded=0;whiteSpace=wrap;html=1;fillColor=#b1ddf0;strokeColor=#10739e;" vertex="1" parent="1">
          <mxGeometry x="440" y="520" width="80" height="40" as="geometry" />
        </mxCell>
        <mxCell id="mKmFAj5GpWF6zvFIoPCy-8" value="device 4" style="rounded=0;whiteSpace=wrap;html=1;fillColor=#b1ddf0;strokeColor=#10739e;" vertex="1" parent="1">
          <mxGeometry x="560" y="520" width="80" height="40" as="geometry" />
        </mxCell>
        <mxCell id="mKmFAj5GpWF6zvFIoPCy-9" value="" style="endArrow=classic;startArrow=classic;html=1;rounded=0;entryX=0;entryY=1;entryDx=0;entryDy=0;exitX=0.5;exitY=0;exitDx=0;exitDy=0;" edge="1" parent="1" source="mKmFAj5GpWF6zvFIoPCy-2" target="mKmFAj5GpWF6zvFIoPCy-1">
          <mxGeometry width="50" height="50" relative="1" as="geometry">
            <mxPoint x="400" y="610" as="sourcePoint" />
            <mxPoint x="450" y="560" as="targetPoint" />
          </mxGeometry>
        </mxCell>
        <mxCell id="mKmFAj5GpWF6zvFIoPCy-10" value="" style="endArrow=classic;startArrow=classic;html=1;rounded=0;entryX=1;entryY=1;entryDx=0;entryDy=0;exitX=0.5;exitY=0;exitDx=0;exitDy=0;" edge="1" parent="1" source="mKmFAj5GpWF6zvFIoPCy-3" target="mKmFAj5GpWF6zvFIoPCy-1">
          <mxGeometry width="50" height="50" relative="1" as="geometry">
            <mxPoint x="210" y="530" as="sourcePoint" />
            <mxPoint x="270" y="490" as="targetPoint" />
          </mxGeometry>
        </mxCell>
        <mxCell id="mKmFAj5GpWF6zvFIoPCy-11" value="" style="endArrow=classic;startArrow=classic;html=1;rounded=0;entryX=0;entryY=1;entryDx=0;entryDy=0;exitX=1;exitY=0;exitDx=0;exitDy=0;" edge="1" parent="1" source="mKmFAj5GpWF6zvFIoPCy-1" target="mKmFAj5GpWF6zvFIoPCy-4">
          <mxGeometry width="50" height="50" relative="1" as="geometry">
            <mxPoint x="330" y="530" as="sourcePoint" />
            <mxPoint x="270" y="490" as="targetPoint" />
          </mxGeometry>
        </mxCell>
        <mxCell id="mKmFAj5GpWF6zvFIoPCy-12" value="" style="endArrow=classic;startArrow=classic;html=1;rounded=0;entryX=1;entryY=1;entryDx=0;entryDy=0;exitX=0;exitY=0;exitDx=0;exitDy=0;" edge="1" parent="1" source="mKmFAj5GpWF6zvFIoPCy-6" target="mKmFAj5GpWF6zvFIoPCy-4">
          <mxGeometry width="50" height="50" relative="1" as="geometry">
            <mxPoint x="298" y="422" as="sourcePoint" />
            <mxPoint x="382" y="358" as="targetPoint" />
          </mxGeometry>
        </mxCell>
        <mxCell id="mKmFAj5GpWF6zvFIoPCy-13" value="" style="endArrow=classic;startArrow=classic;html=1;rounded=0;entryX=0;entryY=1;entryDx=0;entryDy=0;exitX=0.5;exitY=0;exitDx=0;exitDy=0;" edge="1" parent="1" source="mKmFAj5GpWF6zvFIoPCy-7" target="mKmFAj5GpWF6zvFIoPCy-6">
          <mxGeometry width="50" height="50" relative="1" as="geometry">
            <mxPoint x="210" y="530" as="sourcePoint" />
            <mxPoint x="270" y="490" as="targetPoint" />
          </mxGeometry>
        </mxCell>
        <mxCell id="mKmFAj5GpWF6zvFIoPCy-14" value="" style="endArrow=classic;startArrow=classic;html=1;rounded=0;entryX=1;entryY=1;entryDx=0;entryDy=0;exitX=0.5;exitY=0;exitDx=0;exitDy=0;" edge="1" parent="1" source="mKmFAj5GpWF6zvFIoPCy-8" target="mKmFAj5GpWF6zvFIoPCy-6">
          <mxGeometry width="50" height="50" relative="1" as="geometry">
            <mxPoint x="490" y="530" as="sourcePoint" />
            <mxPoint x="522" y="478" as="targetPoint" />
          </mxGeometry>
        </mxCell>
        <mxCell id="mKmFAj5GpWF6zvFIoPCy-19" value="" style="edgeStyle=orthogonalEdgeStyle;rounded=0;orthogonalLoop=1;jettySize=auto;html=1;fillColor=#dae8fc;strokeColor=#6c8ebf;" edge="1" parent="1" source="mKmFAj5GpWF6zvFIoPCy-15" target="mKmFAj5GpWF6zvFIoPCy-16">
          <mxGeometry relative="1" as="geometry" />
        </mxCell>
        <mxCell id="mKmFAj5GpWF6zvFIoPCy-15" value="device 0" style="rounded=0;whiteSpace=wrap;html=1;fillColor=#dae8fc;strokeColor=#6c8ebf;" vertex="1" parent="1">
          <mxGeometry x="120" y="600" width="80" height="40" as="geometry" />
        </mxCell>
        <mxCell id="mKmFAj5GpWF6zvFIoPCy-20" value="" style="edgeStyle=orthogonalEdgeStyle;rounded=0;orthogonalLoop=1;jettySize=auto;html=1;fillColor=#dae8fc;strokeColor=#6c8ebf;" edge="1" parent="1" source="mKmFAj5GpWF6zvFIoPCy-16" target="mKmFAj5GpWF6zvFIoPCy-17">
          <mxGeometry relative="1" as="geometry" />
        </mxCell>
        <mxCell id="mKmFAj5GpWF6zvFIoPCy-16" value="device 1" style="rounded=0;whiteSpace=wrap;html=1;fillColor=#dae8fc;strokeColor=#6c8ebf;" vertex="1" parent="1">
          <mxGeometry x="280" y="600" width="80" height="40" as="geometry" />
        </mxCell>
        <mxCell id="mKmFAj5GpWF6zvFIoPCy-21" value="" style="edgeStyle=orthogonalEdgeStyle;rounded=0;orthogonalLoop=1;jettySize=auto;html=1;fillColor=#dae8fc;strokeColor=#6c8ebf;" edge="1" parent="1" source="mKmFAj5GpWF6zvFIoPCy-17" target="mKmFAj5GpWF6zvFIoPCy-18">
          <mxGeometry relative="1" as="geometry">
            <Array as="points">
              <mxPoint x="550" y="620" />
              <mxPoint x="550" y="620" />
            </Array>
          </mxGeometry>
        </mxCell>
        <mxCell id="mKmFAj5GpWF6zvFIoPCy-17" value="device 2" style="rounded=0;whiteSpace=wrap;html=1;fillColor=#dae8fc;strokeColor=#6c8ebf;" vertex="1" parent="1">
          <mxGeometry x="440" y="600" width="80" height="40" as="geometry" />
        </mxCell>
        <mxCell id="mKmFAj5GpWF6zvFIoPCy-18" value="device 3" style="rounded=0;whiteSpace=wrap;html=1;fillColor=#dae8fc;strokeColor=#6c8ebf;" vertex="1" parent="1">
          <mxGeometry x="600" y="600" width="80" height="40" as="geometry" />
        </mxCell>
        <mxCell id="mKmFAj5GpWF6zvFIoPCy-22" value="" style="edgeStyle=orthogonalEdgeStyle;rounded=0;orthogonalLoop=1;jettySize=auto;html=1;exitX=0.5;exitY=1;exitDx=0;exitDy=0;entryX=0.425;entryY=1.05;entryDx=0;entryDy=0;entryPerimeter=0;fillColor=#dae8fc;strokeColor=#6c8ebf;" edge="1" parent="1" source="mKmFAj5GpWF6zvFIoPCy-18" target="mKmFAj5GpWF6zvFIoPCy-15">
          <mxGeometry relative="1" as="geometry">
            <mxPoint x="530" y="630" as="sourcePoint" />
            <mxPoint x="610" y="630" as="targetPoint" />
            <Array as="points">
              <mxPoint x="640" y="660" />
              <mxPoint x="154" y="660" />
            </Array>
          </mxGeometry>
        </mxCell>
        <mxCell id="mKmFAj5GpWF6zvFIoPCy-23" value="ROOT COMPLEX" style="rounded=1;whiteSpace=wrap;html=1;fillColor=#e1d5e7;strokeColor=#9673a6;" vertex="1" parent="1">
          <mxGeometry x="180" y="120" width="440" height="40" as="geometry" />
        </mxCell>
        <mxCell id="mKmFAj5GpWF6zvFIoPCy-28" value="" style="edgeStyle=orthogonalEdgeStyle;rounded=0;orthogonalLoop=1;jettySize=auto;html=1;" edge="1" parent="1" source="mKmFAj5GpWF6zvFIoPCy-24" target="mKmFAj5GpWF6zvFIoPCy-23">
          <mxGeometry relative="1" as="geometry" />
        </mxCell>
        <mxCell id="mKmFAj5GpWF6zvFIoPCy-24" value="device 0" style="rounded=0;whiteSpace=wrap;html=1;fillColor=#dae8fc;strokeColor=#6c8ebf;" vertex="1" parent="1">
          <mxGeometry x="180" y="200" width="80" height="40" as="geometry" />
        </mxCell>
        <mxCell id="mKmFAj5GpWF6zvFIoPCy-29" value="" style="edgeStyle=orthogonalEdgeStyle;rounded=0;orthogonalLoop=1;jettySize=auto;html=1;" edge="1" parent="1" source="mKmFAj5GpWF6zvFIoPCy-25" target="mKmFAj5GpWF6zvFIoPCy-23">
          <mxGeometry relative="1" as="geometry" />
        </mxCell>
        <mxCell id="mKmFAj5GpWF6zvFIoPCy-25" value="device 1" style="rounded=0;whiteSpace=wrap;html=1;fillColor=#dae8fc;strokeColor=#6c8ebf;" vertex="1" parent="1">
          <mxGeometry x="300" y="200" width="80" height="40" as="geometry" />
        </mxCell>
        <mxCell id="mKmFAj5GpWF6zvFIoPCy-30" value="" style="edgeStyle=orthogonalEdgeStyle;rounded=0;orthogonalLoop=1;jettySize=auto;html=1;" edge="1" parent="1" source="mKmFAj5GpWF6zvFIoPCy-26" target="mKmFAj5GpWF6zvFIoPCy-23">
          <mxGeometry relative="1" as="geometry" />
        </mxCell>
        <mxCell id="mKmFAj5GpWF6zvFIoPCy-26" value="device 2" style="rounded=0;whiteSpace=wrap;html=1;fillColor=#dae8fc;strokeColor=#6c8ebf;" vertex="1" parent="1">
          <mxGeometry x="420" y="200" width="80" height="40" as="geometry" />
        </mxCell>
        <mxCell id="mKmFAj5GpWF6zvFIoPCy-31" value="" style="edgeStyle=orthogonalEdgeStyle;rounded=0;orthogonalLoop=1;jettySize=auto;html=1;" edge="1" parent="1" source="mKmFAj5GpWF6zvFIoPCy-27" target="mKmFAj5GpWF6zvFIoPCy-23">
          <mxGeometry relative="1" as="geometry" />
        </mxCell>
        <mxCell id="mKmFAj5GpWF6zvFIoPCy-27" value="device 3" style="rounded=0;whiteSpace=wrap;html=1;fillColor=#dae8fc;strokeColor=#6c8ebf;" vertex="1" parent="1">
          <mxGeometry x="540" y="200" width="80" height="40" as="geometry" />
        </mxCell>
      </root>
    </mxGraphModel>
  </diagram>
</mxfile>
